Coordinates
version=1
nRows=9
nColumns=36
inDegrees=yes

Units are S.I. units (second, meters, Newtons, ...)
If the header above contains a line with 'inDegrees', this indicates whether rotational values are in degrees (yes) or radians (no).

endheader
time	pelvis_tilt	pelvis_list	pelvis_rotation	pelvis_tx	pelvis_ty	pelvis_tz	hip_flexion_r	hip_adduction_r	hip_rotation_r	knee_angle_r	knee_angle_r_beta	ankle_angle_r	subtalar_angle_r	mtp_angle_r	hip_flexion_l	hip_adduction_l	hip_rotation_l	knee_angle_l	knee_angle_l_beta	ankle_angle_l	subtalar_angle_l	mtp_angle_l	lumbar_extension	lumbar_bending	lumbar_rotation	arm_flex_r	arm_add_r	arm_rot_r	elbow_flex_r	pro_sup_r	arm_flex_l	arm_add_l	arm_rot_l	elbow_flex_l	pro_sup_l
      0.00000000	      0.72216911	      0.32065968	     -0.34538779	      0.03639275	      1.02103653	      0.06912587	     -0.51063291	      0.90396153	      0.51470793	      2.78349078	      0.04858108	      2.73919735	     -9.69283403	     -6.42708760	     -0.36876259	      0.96815663	      3.37874376	      2.59678254	      0.04532241	      5.31513795	     -4.89464789	     -6.42708760	     -7.92869219	      0.71559490	     -4.25067285	      2.37641079	     -9.13625483	      6.91017876	     26.77395646	     82.16110809	      0.79280422	    -10.01734373	     -0.43531416	     28.29293445	     79.40839547
      0.01666670	     -1.24085750	      0.42006881	     -0.25416860	      0.03695689	      1.01735629	      0.06829394	      1.65380810	      0.86559540	      1.38649587	      3.04296261	      0.05310972	      5.11666612	     -8.10061521	     -6.79907089	      1.51590269	      1.15223216	      3.88857673	      2.01233521	      0.03512188	      5.28959046	     -3.97677305	     -6.79907089	     -4.80904143	      0.73863907	     -4.21855554	      1.21455729	     -7.96689864	      0.46373764	     26.99907950	     80.90011632	      0.47960309	     -8.27141104	     -7.21039537	     28.32594788	     79.56450448
      0.03333330	     -2.63356249	      0.91958714	     -0.54304933	      0.03799596	      1.01613660	      0.06896675	      2.87377878	      0.47896643	      1.16612249	      2.51473150	      0.04389034	      5.83271113	     -7.93027729	     -7.09604284	      3.06345136	      1.66074991	      3.23448369	      1.96783133	      0.03434514	      5.54820340	     -3.34088226	     -7.09604284	     -3.01006227	     -0.04951398	     -3.76605142	      0.24753057	     -7.22379016	     -3.80681292	     27.94381941	     84.35523765	      0.25304469	     -8.01732233	     -9.59015538	     28.22654438	     83.31543462
      0.05000000	     -2.63166183	      1.04885410	     -0.64630590	      0.03720971	      1.01623800	      0.06955376	      2.76438785	      0.42799354	      1.09686848	      2.09825048	      0.03662138	      6.08168112	     -7.86897519	     -7.30428204	      2.86519835	      1.82690034	      3.18891267	      1.49176608	      0.02603623	      5.66074047	     -3.16158141	     -7.30428204	     -3.04769123	     -0.31450962	     -3.58931134	     -0.01775193	     -6.98191583	     -5.30722808	     28.62257728	     85.05240708	      0.11362191	     -8.04726497	    -10.86364992	     28.79411790	     83.80289546
      0.06666670	     -3.16946302	      1.08419738	     -0.51831715	      0.03793806	      1.01501977	      0.06904187	      3.18325742	      0.45963586	      0.88919569	      1.83467781	      0.03202117	      6.14440077	     -7.68157399	     -7.37415590	      3.39645556	      1.88477505	      3.10728490	      1.31499439	      0.02295098	      5.69736545	     -2.88770133	     -7.37415590	     -2.29648867	     -0.37215226	     -3.47101205	     -0.42482741	     -6.91079452	     -5.17920273	     29.00647709	     80.07340780	      0.03885947	     -7.97901457	    -10.87476523	     29.07169014	     79.04834311
      0.08333330	     -2.93305767	      1.17990113	     -0.54844361	      0.03817401	      1.01693053	      0.06900610	      2.84843132	      0.38069984	      1.19168018	      1.65144911	      0.02882322	      5.97605187	     -8.21820241	     -7.44847796	      3.12962781	      1.99147508	      3.10627104	      1.17227159	      0.02046000	      5.77826859	     -2.97019733	     -7.44847796	     -2.70663436	     -0.49067116	     -3.25730166	     -0.42632779	     -6.96667765	     -5.31324918	     29.40290275	     85.72400982	      0.25192606	     -7.96597607	    -11.63811010	     29.65079886	     85.20967431
      0.10000000	     -3.03358950	      1.21944911	     -0.51699830	      0.03795951	      1.01600319	      0.06941261	      2.88759612	      0.35871101	      1.25964472	      1.52222611	      0.02656786	      5.74453897	     -8.52523677	     -7.48308037	      3.25490806	      2.02361563	      3.16697167	      1.12854096	      0.01969676	      5.85036253	     -2.98679512	     -7.48308037	     -2.55343391	     -0.57357156	     -3.25918577	     -0.38827990	     -6.89180589	     -5.06823456	     29.39346229	     86.20722730	      0.33338849	     -7.82621664	    -12.58928189	     30.04438155	     86.45062570
      0.11666670	     -3.19029035	      1.26658278	     -0.47050752	      0.03836949	      1.01455657	      0.06932254	      2.96288677	      0.30511401	      1.44487368	      1.45706400	      0.02543056	      5.50498202	     -8.79953454	     -7.49442502	      3.44514170	      2.06342469	      3.28063397	      1.19052325	      0.02077855	      5.96324898	     -3.02394206	     -7.49442502	     -2.30472789	     -0.67271891	     -3.23538824	     -0.40870251	     -6.76925315	     -5.12783894	     29.38514504	     86.80288262	      0.45123319	     -7.69748201	    -13.45531498	     30.31462280	     87.62178222
      0.13333330	     -3.32231236	      1.27122330	     -0.39362618	      0.03822611	      1.01435381	      0.06854042	      3.03910297	      0.27984978	      1.55989083	      1.40731542	      0.02456229	      5.27410381	     -9.04417174	     -7.49791029	      3.59558498	      2.07434998	      3.48622652	      1.25355362	      0.02187864	      6.01996715	     -3.05190892	     -7.49791029	     -2.11513809	     -0.71224868	     -3.25889457	     -0.42230588	     -6.66657193	     -5.30462861	     29.41929403	     87.59975883	      0.56824910	     -7.54945464	    -14.28504044	     30.53984430	     88.94157641
